# xmcd
#
# Track frame offsets:
#	150
#	12447
#	24062
#	37476
#	49318
#	63238
#	78063
#	95243
#	109135
#	122040
#	136203
#	148494
#	163466
#	178669
#	189984
#	201368
#	216186
#	227127
#
# Disc length: 3168 seconds
#
# Revision: 0
# Processed by: cddbd v1.5.2PL0 Copyright (c) Steve Scherf et al.
# Submitted via: EasyCDDAExtractor 16.0.6.1
#
DISCID=0f0c5e12
DTITLE=Συλλογικός δίσκος - Τραγούδια 45 στροφές-Χιώτης Μανώλης 1
DYEAR=1998
DGENRE=Λαϊκή
TTITLE0=Λίντα Μαίρη-Χιώτης Μανώλης - Μεγάλη μου αγάπη [1964, Μανώλης Χιώτης]
TTITLE1=Αγγελόπουλος Μανώλης-Βασιλείου Αννούλα - Του Ιούδα το φιλί [1964, Μανώ
TTITLE1=λης Χιώτης-Ν. Δαλέζιος]
TTITLE2=Λίντα Μαίρη - Της προδομένης το δαχτυλίδι [1964, Μανώλης Χιώτης-Ν. Δαλ
TTITLE2=έζιος]
TTITLE3=Τρίο Μπριλλάντε - Φέρε στα παιδιά να πιούνε [1963, Μανώλης Χιώτης]
TTITLE4=Λίντα Μαίρη-Χιώτης Μανώλης - Ο Γιωργάκης [1961, Μανώλης Χιώτης]
TTITLE5=Διονυσίου Στράτος - Πες μου τι μεσολάβησε [1962, Μανώλης Χιώτης]
TTITLE6=Λίντα Μαίρη-Χιώτης Μ.-Τρίο Μπελκάντο - Φέρε παιδί μου [1961, Μανώλης Χ
TTITLE6=ιώτης-Ηλ. Λυμπερόπουλος]
TTITLE7=Χατζηχρήστος Κώστας-Χιώτης Μ.-Τρίο Μπελκάντο - Ο Θύμιος κανταδόρος [19
TTITLE7=61, Μανώλης Χιώτης]
TTITLE8=Λίντα Μαίρη-Χιώτης Μανώλης - Εμένα βρήκες [1962, Μανώλης Χιώτης-Γ. Για
TTITLE8=ννακόπουλος]
TTITLE9=Λίντα Μαίρη-Χιώτης Μανώλης - Το τελευταίο αύριο [1964, Μανώλης Χιώτης-
TTITLE9=Ν. Δαλέζιος]
TTITLE10=Λίντα Μαίρη-Χιώτης Μανώλης - Ξέχασέ με [1964, Μανώλης Χιώτης]
TTITLE11=Κυριακίδου Μπέμπα-Χιώτης Μανώλης - Μάζεψε τα πράγματά σου [1969, Μανώ
TTITLE11=λης Χιώτης]
TTITLE12=Λίντα Μαίρη-Τρίο Μπριλλάντε - Το μονοπάτι της αγάπης [1963, Μανώλης Χ
TTITLE12=ιώτης]
TTITLE13=Λίντα Μαίρη-Χιώτης Μανώλης - Φωτιές ανάψτε γύρω μου [1962, Μανώλης Χι
TTITLE13=ώτης]
TTITLE14=Τρίο Μπελκάντο - Το τσουλούφι [1961, Μανώλης Χιώτης-Ν. Μουρκάκος]
TTITLE15=Λίντα Μαίρη-Χιώτης Μανώλης - Δυό καρδιές χωρίσανε [1962, Μανώλης Χιώτ
TTITLE15=ης]
TTITLE16=Κυριακίδου Μπέμπα-Χιώτης Μανώλης - Τι κορίτσι είμ' εγώ [1969, Μανώλης
TTITLE16=Χιώτης]
TTITLE17=Λίντα Μαίρη-Χιώτης Μανώλης - Καλώς ήρθες ξανά [1964, Μανώλης Χιώτης]
EXTD=
EXTT0=
EXTT1=
EXTT2=
EXTT3=
EXTT4=
EXTT5=
EXTT6=
EXTT7=
EXTT8=
EXTT9=
EXTT10=
EXTT11=
EXTT12=
EXTT13=
EXTT14=
EXTT15=
EXTT16=
EXTT17=
PLAYORDER=
